<?xml version="1.0" encoding="UTF-8"?>
<svg id="Layer_1" data-name="Layer 1" xmlns="http://www.w3.org/2000/svg" viewBox="0 0 378.3 302.9">
  <defs>
    <style>
      .cls-1 {
        fill: #e7e2d6;
      }

      .cls-2 {
        fill: #b5966d;
      }

      .cls-3 {
        fill: #c1a074;
      }

      .cls-4 {
        fill: #bea57f;
      }

      .cls-5 {
        fill: #5e4938;
      }
    </style>
  </defs>
  <rect class="cls-1" width="378.3" height="302.9"/>
  <path class="cls-4" d="m167.97,171.85c.61-4.05.93-8.2.93-12.42,0-33.4-19.87-62.16-48.43-75.11,46.4,2.25,83.32,40.58,83.32,87.53h-35.82Z"/>
  <path class="cls-4" d="m120.47,84.32c46.4,2.25,83.32,40.58,83.32,87.53h-35.82c.61-4.05.93-8.2.93-12.42,0-33.4-19.87-62.16-48.43-75.11Z"/>
  <path class="cls-4" d="m167.97,171.85c.61-4.05.93-8.2.93-12.42,0-33.4-19.87-62.16-48.43-75.11,46.4,2.25,83.32,40.58,83.32,87.53h-35.82Z"/>
  <path class="cls-4" d="m120.47,84.32c46.4,2.25,83.32,40.58,83.32,87.53h-35.82c.61-4.05.93-8.2.93-12.42,0-33.4-19.87-62.16-48.43-75.11Z"/>
  <path class="cls-4" d="m203.79,171.85h-35.82c.61-4.05.93-8.2.93-12.42,0-33.4-19.87-62.16-48.43-75.11,46.4,2.25,83.32,40.58,83.32,87.53Z"/>
  <path class="cls-4" d="m120.47,84.32c46.4,2.25,83.32,40.58,83.32,87.53h-35.82c.61-4.05.93-8.2.93-12.42,0-33.4-19.87-62.16-48.43-75.11Z"/>
  <path class="cls-5" d="m120.47,84.32c46.4,2.25,83.32,40.58,83.32,87.53h-35.82c.61-4.05.93-8.2.93-12.42,0-33.4-19.87-62.16-48.43-75.11Z"/>
  <path class="cls-3" d="m273.45,171.85h-58.89c0-54.34-44.06-98.4-98.4-98.4-8.14,0-16.04.99-23.6,2.86-.99.23-1.98.49-2.96.77-2.82.79-5.6,1.7-8.31,2.74-3.97,1.49-7.8,3.24-11.5,5.23-30.27,16.19-51.07,47.76-52,84.26.63-32.83,13.65-62.63,34.57-84.92,13.81-14.73,31.08-26.18,50.5-33.06,2.25-.81,4.53-1.54,6.83-2.21,11.39-3.33,23.45-5.12,35.92-5.12,3.09,0,6.16.11,9.2.33,66.31,4.71,118.64,60,118.64,127.52Z"/>
  <path class="cls-3" d="m305.21,65.61c0-3.08,3.7-4.66,5.93-2.53,27.63,26.32,45.92,62.36,49.38,102.64-1.06-83.84-69.34-151.47-153.43-151.47-26.76,0-51.92,6.85-73.82,18.89,20.35-9.29,42.98-14.47,66.82-14.47,6.03,0,11.98.33,17.83.98,3.37.37,5.91,3.25,5.91,6.64v11.74c0,3.08-2.79,5.42-5.82,4.84-9.13-1.75-18.56-2.66-28.19-2.66h-.75c55.26,18.24,95.15,70.29,95.15,131.66h53.61c-3.11-26.86-13.37-51.54-28.81-72.1-2.5-3.33-3.81-7.4-3.81-11.56v-22.59Zm-61.64-15.42c-2.69-1.04-5.41-2.01-8.17-2.89-4.05-1.3-6.77-5.09-6.77-9.34v-11.65c0-2.67,2.46-4.69,5.08-4.13,3.11.66,6.19,1.41,9.24,2.25,3.77,1.04,6.41,4.45,6.41,8.37v13.48c0,2.98-3,4.99-5.78,3.91Zm25.34,12.71c-2.9-1.82-5.87-3.55-8.9-5.17-3.63-1.94-5.86-5.74-5.86-9.86v-14.27c0-2.75,2.77-4.65,5.32-3.64,3.2,1.27,6.35,2.64,9.44,4.1,3.62,1.71,5.96,5.32,5.96,9.33v16.2c0,3.06-3.37,4.93-5.96,3.3Zm25.53,20.19c-3.01-2.96-6.14-5.8-9.39-8.51-3.42-2.84-5.37-7.09-5.37-11.54v-17.22c0-2.73,3-4.43,5.32-2.99,3.25,2.02,6.42,4.15,9.5,6.39,3.71,2.69,5.91,6.98,5.91,11.56v19.83c0,3.12-3.75,4.66-5.97,2.48Z"/>
  <g>
    <path class="cls-2" d="m20.84,288.43l4.89-11.49h2.31l4.89,11.49h-2.62l-1.04-2.56h-4.82l-1.04,2.56h-2.56Zm4.5-4.77h3.03l-1.52-3.7-1.52,3.7Z"/>
    <path class="cls-2" d="m35.46,288.43v-11.41h5.21c1.44,0,2.55.39,3.32,1.16.65.65.98,1.53.98,2.64,0,1.75-.81,2.93-2.44,3.54l2.79,4.07h-2.93l-2.48-3.65h-1.94v3.65h-2.51Zm2.51-5.87h2.54c.61,0,1.08-.15,1.42-.45.34-.3.51-.7.51-1.2,0-.53-.17-.94-.52-1.21-.35-.28-.83-.42-1.45-.42h-2.49v3.28Z"/>
    <path class="cls-2" d="m48.19,288.43v-11.41h5.3c1.31,0,2.31.34,2.98,1.01.52.52.78,1.18.78,1.97,0,1.08-.5,1.9-1.5,2.46.71.27,1.24.63,1.6,1.07.36.44.54,1.03.54,1.77,0,1.02-.38,1.8-1.14,2.33-.76.53-1.8.8-3.13.8h-5.43Zm2.44-6.8h2.31c1.21,0,1.81-.41,1.81-1.24,0-.38-.14-.67-.42-.87-.28-.2-.69-.3-1.22-.3h-2.48v2.41Zm0,4.6h2.98c1.18,0,1.78-.42,1.78-1.27s-.62-1.24-1.86-1.24h-2.9v2.51Z"/>
    <path class="cls-2" d="m61,288.43v-11.41h2.51v11.41h-2.51Z"/>
    <path class="cls-2" d="m69.65,288.43v-9.09h-3.47v-2.31h9.45v2.31h-3.47v9.09h-2.51Z"/>
    <path class="cls-2" d="m78.24,288.43v-11.41h5.21c1.44,0,2.55.39,3.32,1.16.65.65.98,1.53.98,2.64,0,1.75-.81,2.93-2.44,3.54l2.79,4.07h-2.93l-2.48-3.65h-1.94v3.65h-2.51Zm2.51-5.87h2.54c.61,0,1.08-.15,1.42-.45.34-.3.51-.7.51-1.2,0-.53-.17-.94-.52-1.21-.35-.28-.83-.42-1.45-.42h-2.49v3.28Z"/>
    <path class="cls-2" d="m90.21,288.43l4.89-11.49h2.31l4.89,11.49h-2.62l-1.04-2.56h-4.82l-1.04,2.56h-2.56Zm4.5-4.77h3.03l-1.52-3.7-1.52,3.7Z"/>
    <path class="cls-2" d="m106.16,288.43v-9.09h-3.47v-2.31h9.45v2.31h-3.47v9.09h-2.51Z"/>
    <path class="cls-2" d="m114.8,288.43v-11.41h2.51v11.41h-2.51Z"/>
    <path class="cls-2" d="m130.87,286.91c-1.16,1.15-2.6,1.72-4.34,1.72s-3.18-.57-4.33-1.71c-1.15-1.14-1.72-2.54-1.72-4.19s.58-3.03,1.74-4.18c1.16-1.15,2.6-1.72,4.34-1.72s3.18.57,4.33,1.71c1.15,1.14,1.72,2.54,1.72,4.19s-.58,3.03-1.74,4.18Zm-6.79-1.64c.65.7,1.48,1.04,2.48,1.04s1.82-.34,2.46-1.03.96-1.54.96-2.55-.33-1.85-.98-2.54-1.48-1.04-2.48-1.04-1.82.34-2.46,1.03c-.64.69-.96,1.54-.96,2.55s.33,1.85.98,2.54Z"/>
    <path class="cls-2" d="m135.7,288.43v-11.41h2.31l5.35,7.02v-7.02h2.48v11.41h-2.14l-5.52-7.25v7.25h-2.48Z"/>
    <path class="cls-2" d="m162.77,288.66l-1.32-1.34c-1.03.85-2.15,1.27-3.34,1.27-1.12,0-2.04-.3-2.75-.9-.72-.6-1.08-1.41-1.08-2.42,0-1.41.74-2.46,2.22-3.13-.53-.75-.8-1.52-.8-2.31s.31-1.53.94-2.12c.62-.59,1.46-.88,2.52-.88.96,0,1.73.28,2.32.83.59.55.89,1.24.89,2.07,0,1.37-.8,2.36-2.4,2.98l1.52,1.52c.36-.56.73-1.22,1.11-1.96l1.84,1.01c-.56,1.02-1.06,1.83-1.5,2.41l1.68,1.68-1.84,1.29Zm-4.37-2.12c.54,0,1.09-.22,1.65-.65l-2.18-2.22c-.71.37-1.06.88-1.06,1.53,0,.4.15.73.45.97.3.24.68.37,1.15.37Zm.26-5.15c.52-.2.9-.41,1.15-.65.24-.24.37-.54.37-.9,0-.33-.1-.58-.29-.77-.2-.19-.46-.29-.78-.29s-.61.11-.81.33c-.2.22-.3.51-.3.86,0,.43.22.91.67,1.42Z"/>
    <path class="cls-2" d="m172.96,288.43v-11.41h2.71l3,4.82,3-4.82h2.71v11.41h-2.49v-7.45l-3.21,4.87h-.06l-3.18-4.82v7.4h-2.46Z"/>
    <path class="cls-2" d="m188.08,288.43v-11.41h8.6v2.23h-6.11v2.31h5.38v2.23h-5.38v2.4h6.19v2.23h-8.69Z"/>
    <path class="cls-2" d="m200.04,288.43v-11.41h4.45c1.78,0,3.24.54,4.37,1.62s1.69,2.44,1.69,4.08-.57,2.99-1.7,4.07c-1.14,1.09-2.59,1.63-4.36,1.63h-4.45Zm2.51-2.27h1.94c1.03,0,1.86-.32,2.49-.95.63-.64.95-1.46.95-2.49s-.32-1.84-.95-2.48c-.64-.64-1.46-.96-2.49-.96h-1.94v6.88Z"/>
    <path class="cls-2" d="m213.69,288.43v-11.41h2.51v11.41h-2.51Z"/>
    <path class="cls-2" d="m218.78,288.43l4.89-11.49h2.31l4.89,11.49h-2.62l-1.04-2.56h-4.82l-1.04,2.56h-2.56Zm4.5-4.77h3.03l-1.52-3.7-1.52,3.7Z"/>
    <path class="cls-2" d="m234.73,288.43v-9.09h-3.47v-2.31h9.45v2.31h-3.47v9.09h-2.51Z"/>
    <path class="cls-2" d="m243.37,288.43v-11.41h2.51v11.41h-2.51Z"/>
    <path class="cls-2" d="m259.44,286.91c-1.16,1.15-2.6,1.72-4.34,1.72s-3.18-.57-4.33-1.71c-1.15-1.14-1.72-2.54-1.72-4.19s.58-3.03,1.74-4.18c1.16-1.15,2.6-1.72,4.34-1.72s3.18.57,4.33,1.71c1.15,1.14,1.72,2.54,1.72,4.19s-.58,3.03-1.74,4.18Zm-6.79-1.64c.65.7,1.48,1.04,2.48,1.04s1.82-.34,2.46-1.03.96-1.54.96-2.55-.33-1.85-.98-2.54-1.48-1.04-2.48-1.04-1.82.34-2.46,1.03c-.64.69-.96,1.54-.96,2.55s.33,1.85.98,2.54Z"/>
    <path class="cls-2" d="m264.27,288.43v-11.41h2.31l5.35,7.02v-7.02h2.48v11.41h-2.14l-5.52-7.25v7.25h-2.48Z"/>
    <path class="cls-2" d="m289.01,288.63c-1.67,0-3.07-.57-4.18-1.7s-1.67-2.53-1.67-4.2.56-3.05,1.68-4.19c1.12-1.14,2.54-1.71,4.27-1.71.99,0,1.82.16,2.49.48.67.32,1.31.78,1.92,1.38l-1.5,1.73c-.49-.45-.95-.77-1.38-.97-.43-.2-.95-.3-1.56-.3-.96,0-1.75.34-2.37,1.03-.62.69-.94,1.54-.94,2.55s.31,1.85.94,2.54c.62.7,1.42,1.04,2.37,1.04.61,0,1.14-.11,1.58-.33s.92-.55,1.42-1.01l1.6,1.71c-.62.66-1.29,1.15-2.01,1.47-.72.31-1.61.47-2.66.47Z"/>
    <path class="cls-2" d="m296.39,288.43v-11.41h8.6v2.23h-6.11v2.31h5.38v2.23h-5.38v2.4h6.19v2.23h-8.69Z"/>
    <path class="cls-2" d="m308.35,288.43v-11.41h2.31l5.35,7.02v-7.02h2.48v11.41h-2.14l-5.52-7.25v7.25h-2.48Z"/>
    <path class="cls-2" d="m324.56,288.43v-9.09h-3.47v-2.31h9.45v2.31h-3.47v9.09h-2.51Z"/>
    <path class="cls-2" d="m333.15,288.43v-11.41h8.6v2.23h-6.11v2.31h5.38v2.23h-5.38v2.4h6.19v2.23h-8.69Z"/>
    <path class="cls-2" d="m345.11,288.43v-11.41h5.21c1.44,0,2.55.39,3.32,1.16.65.65.98,1.53.98,2.64,0,1.75-.81,2.93-2.44,3.54l2.79,4.07h-2.93l-2.48-3.65h-1.94v3.65h-2.51Zm2.51-5.87h2.54c.61,0,1.08-.15,1.42-.45.34-.3.51-.7.51-1.2,0-.53-.17-.94-.52-1.21-.35-.28-.83-.42-1.45-.42h-2.49v3.28Z"/>
  </g>
  <g>
    <path class="cls-5" d="m55.04,263.03c-10.19,0-18.13-2.83-23.83-8.49-5.7-5.66-8.55-13.91-8.55-24.73v-42.74h16.45v42.31c0,5.98,1.41,10.56,4.22,13.73,2.81,3.17,6.78,4.75,11.91,4.75s9.1-1.53,11.91-4.59c2.81-3.06,4.22-7.51,4.22-13.35v-42.84h16.45v42.2c0,11.11-2.9,19.52-8.71,25.21-5.81,5.7-13.84,8.55-24.09,8.55Z"/>
    <path class="cls-5" d="m104.02,261.86v-74.79h15.17l35.04,46.05v-46.05h16.24v74.79h-14l-36.22-47.54v47.54h-16.24Z"/>
    <path class="cls-5" d="m187.77,261.86v-74.79h16.45v74.79h-16.45Z"/>
    <path class="cls-5" d="m236.96,261.86v-59.62h-22.76v-15.17h61.97v15.17h-22.76v59.62h-16.45Z"/>
    <path class="cls-5" d="m311.1,261.86v-29.49l-28.74-45.3h19.23l17.84,30.02,18.16-30.02h18.7l-28.74,44.98v29.81h-16.45Z"/>
  </g>
</svg>