<?xml version="1.0" encoding="UTF-8"?>
<svg id="Layer_1" data-name="Layer 1" xmlns="http://www.w3.org/2000/svg" viewBox="0 0 378.3 302.9">
  <path d="m203.79,171.85c0-46.95-36.92-85.28-83.32-87.53,28.56,12.95,48.43,41.71,48.43,75.11,0,4.22-.32,8.37-.93,12.42h35.82Z"/>
  <path d="m116.16,73.45c54.34,0,98.4,44.06,98.4,98.4h58.89c0-67.52-52.33-122.81-118.64-127.52-3.04-.22-6.11-.33-9.2-.33-12.47,0-24.53,1.79-35.92,5.12-2.3.67-4.58,1.4-6.83,2.21-19.42,6.88-36.69,18.33-50.5,33.06-20.92,22.29-33.94,52.09-34.57,84.92.93-36.5,21.73-68.07,52-84.26,3.7-1.99,7.53-3.74,11.5-5.23,2.71-1.04,5.49-1.95,8.31-2.74.98-.28,1.97-.54,2.96-.77,7.56-1.87,15.46-2.86,23.6-2.86Z"/>
  <path d="m217.92,19.64c3.37.37,5.91,3.25,5.91,6.64v11.74c0,3.08-2.79,5.42-5.82,4.84-9.13-1.75-18.56-2.66-28.19-2.66h-.75c55.26,18.24,95.15,70.29,95.15,131.66h53.61c-3.11-26.86-13.37-51.54-28.81-72.1-2.5-3.33-3.81-7.4-3.81-11.56v-22.59c0-3.08,3.7-4.66,5.93-2.53,27.63,26.32,45.92,62.36,49.38,102.64-1.06-83.84-69.34-151.47-153.43-151.47-26.76,0-51.92,6.85-73.82,18.89,20.35-9.29,42.98-14.47,66.82-14.47,6.03,0,11.98.33,17.83.98Zm67.08,23.2c3.25,2.02,6.42,4.15,9.5,6.39,3.71,2.69,5.91,6.98,5.91,11.56v19.83c0,3.12-3.75,4.66-5.97,2.48-3.01-2.96-6.14-5.8-9.39-8.51-3.42-2.84-5.37-7.09-5.37-11.54v-17.22c0-2.73,3-4.43,5.32-2.99Zm-25.53-12.87c3.2,1.27,6.35,2.64,9.44,4.1,3.62,1.71,5.96,5.32,5.96,9.33v16.2c0,3.06-3.37,4.93-5.96,3.3-2.9-1.82-5.87-3.55-8.9-5.17-3.63-1.94-5.86-5.74-5.86-9.86v-14.27c0-2.75,2.77-4.65,5.32-3.64Zm-30.84-3.66c0-2.67,2.46-4.69,5.08-4.13,3.11.66,6.19,1.41,9.24,2.25,3.77,1.04,6.41,4.45,6.41,8.37v13.48c0,2.98-3,4.99-5.78,3.91-2.69-1.04-5.41-2.01-8.17-2.89-4.05-1.3-6.77-5.09-6.77-9.34v-11.65Z"/>
  <path d="m25.73,276.94l-4.89,11.49h2.56l1.04-2.56h4.82l1.04,2.56h2.62l-4.89-11.49h-2.31Zm-.39,6.71l1.52-3.7,1.52,3.7h-3.03Z"/>
  <path d="m44.98,280.82c0-1.11-.33-1.99-.98-2.64-.77-.77-1.88-1.16-3.32-1.16h-5.21v11.41h2.51v-3.65h1.94l2.48,3.65h2.93l-2.79-4.07c1.63-.61,2.44-1.79,2.44-3.54Zm-3.05,1.3c-.34.3-.81.45-1.42.45h-2.54v-3.28h2.49c.62,0,1.1.14,1.45.42.35.28.52.68.52,1.21,0,.5-.17.9-.51,1.2Z"/>
  <path d="m55.75,282.46c1-.56,1.5-1.39,1.5-2.46,0-.79-.26-1.45-.78-1.97-.67-.67-1.67-1.01-2.98-1.01h-5.3v11.41h5.43c1.33,0,2.37-.27,3.13-.8.76-.53,1.14-1.31,1.14-2.33,0-.74-.18-1.33-.54-1.77-.36-.44-.89-.8-1.6-1.07Zm-5.12-3.24h2.48c.53,0,.94.1,1.22.3.28.2.42.49.42.87,0,.83-.6,1.24-1.81,1.24h-2.31v-2.41Zm2.98,7.01h-2.98v-2.51h2.9c1.24,0,1.86.41,1.86,1.24s-.59,1.27-1.78,1.27Z"/>
  <rect x="61" y="277.02" width="2.51" height="11.41"/>
  <polygon points="66.18 279.34 69.65 279.34 69.65 288.43 72.16 288.43 72.16 279.34 75.63 279.34 75.63 277.02 66.18 277.02 66.18 279.34"/>
  <path d="m87.75,280.82c0-1.11-.33-1.99-.98-2.64-.77-.77-1.88-1.16-3.32-1.16h-5.21v11.41h2.51v-3.65h1.94l2.48,3.65h2.93l-2.79-4.07c1.63-.61,2.44-1.79,2.44-3.54Zm-3.05,1.3c-.34.3-.81.45-1.42.45h-2.54v-3.28h2.49c.62,0,1.1.14,1.45.42.35.28.52.68.52,1.21,0,.5-.17.9-.51,1.2Z"/>
  <path d="m95.1,276.94l-4.89,11.49h2.56l1.04-2.56h4.82l1.04,2.56h2.62l-4.89-11.49h-2.31Zm-.39,6.71l1.52-3.7,1.52,3.7h-3.03Z"/>
  <polygon points="102.69 279.34 106.16 279.34 106.16 288.43 108.67 288.43 108.67 279.34 112.14 279.34 112.14 277.02 102.69 277.02 102.69 279.34"/>
  <rect x="114.8" y="277.02" width="2.51" height="11.41"/>
  <path d="m126.56,276.83c-1.74,0-3.19.57-4.34,1.72-1.16,1.15-1.74,2.54-1.74,4.18s.57,3.05,1.72,4.19c1.15,1.14,2.59,1.71,4.33,1.71s3.19-.57,4.34-1.72c1.16-1.15,1.74-2.54,1.74-4.18s-.57-3.05-1.72-4.19c-1.15-1.14-2.59-1.71-4.33-1.71Zm2.46,8.45c-.64.69-1.46,1.03-2.46,1.03s-1.83-.35-2.48-1.04-.98-1.54-.98-2.54.32-1.86.96-2.55c.64-.69,1.46-1.03,2.46-1.03s1.83.35,2.48,1.04.98,1.54.98,2.54-.32,1.86-.96,2.55Z"/>
  <polygon points="143.36 284.05 138.02 277.02 135.7 277.02 135.7 288.43 138.18 288.43 138.18 281.18 143.7 288.43 145.84 288.43 145.84 277.02 143.36 277.02 143.36 284.05"/>
  <path d="m164.43,283.28l-1.84-1.01c-.38.74-.75,1.39-1.11,1.96l-1.52-1.52c1.6-.62,2.4-1.61,2.4-2.98,0-.83-.3-1.52-.89-2.07-.59-.55-1.37-.83-2.32-.83-1.05,0-1.89.29-2.52.88-.62.59-.94,1.29-.94,2.12s.27,1.56.8,2.31c-1.48.67-2.22,1.72-2.22,3.13,0,1.01.36,1.82,1.08,2.42.72.6,1.63.9,2.75.9,1.2,0,2.31-.42,3.34-1.27l1.32,1.34,1.84-1.29-1.68-1.68c.43-.59.93-1.39,1.5-2.41Zm-6.14-4.17c.2-.22.47-.33.81-.33s.59.1.78.29c.2.19.29.45.29.77,0,.36-.12.66-.37.9-.24.24-.63.46-1.15.65-.45-.51-.67-.98-.67-1.42,0-.36.1-.65.3-.86Zm.11,7.43c-.47,0-.85-.12-1.15-.37-.3-.24-.45-.57-.45-.97,0-.65.35-1.16,1.06-1.53l2.18,2.22c-.55.44-1.1.65-1.65.65Z"/>
  <polygon points="178.66 281.85 175.66 277.02 172.96 277.02 172.96 288.43 175.42 288.43 175.42 281.03 178.6 285.85 178.66 285.85 181.87 280.98 181.87 288.43 184.36 288.43 184.36 277.02 181.66 277.02 178.66 281.85"/>
  <polygon points="190.57 283.8 195.95 283.8 195.95 281.57 190.57 281.57 190.57 279.25 196.68 279.25 196.68 277.02 188.08 277.02 188.08 288.43 196.76 288.43 196.76 286.2 190.57 286.2 190.57 283.8"/>
  <path d="m204.48,277.02h-4.45v11.41h4.45c1.77,0,3.22-.54,4.36-1.63,1.14-1.09,1.7-2.44,1.7-4.07s-.56-3-1.69-4.08-2.59-1.62-4.37-1.62Zm2.49,8.19c-.63.64-1.46.95-2.49.95h-1.94v-6.88h1.94c1.02,0,1.85.32,2.49.96.64.64.95,1.47.95,2.48s-.32,1.85-.95,2.49Z"/>
  <rect x="213.69" y="277.02" width="2.51" height="11.41"/>
  <path d="m223.67,276.94l-4.89,11.49h2.56l1.04-2.56h4.82l1.04,2.56h2.62l-4.89-11.49h-2.31Zm-.39,6.71l1.52-3.7,1.52,3.7h-3.03Z"/>
  <polygon points="231.25 279.34 234.73 279.34 234.73 288.43 237.23 288.43 237.23 279.34 240.71 279.34 240.71 277.02 231.25 277.02 231.25 279.34"/>
  <rect x="243.37" y="277.02" width="2.51" height="11.41"/>
  <path d="m255.13,276.83c-1.74,0-3.19.57-4.34,1.72-1.16,1.15-1.74,2.54-1.74,4.18s.57,3.05,1.72,4.19c1.15,1.14,2.59,1.71,4.33,1.71s3.19-.57,4.34-1.72c1.16-1.15,1.74-2.54,1.74-4.18s-.57-3.05-1.72-4.19c-1.15-1.14-2.59-1.71-4.33-1.71Zm2.46,8.45c-.64.69-1.46,1.03-2.46,1.03s-1.83-.35-2.48-1.04-.98-1.54-.98-2.54.32-1.86.96-2.55c.64-.69,1.46-1.03,2.46-1.03s1.83.35,2.48,1.04.98,1.54.98,2.54-.32,1.86-.96,2.55Z"/>
  <polygon points="271.93 284.05 266.58 277.02 264.27 277.02 264.27 288.43 266.75 288.43 266.75 281.18 272.27 288.43 274.41 288.43 274.41 277.02 271.93 277.02 271.93 284.05"/>
  <path d="m290.67,285.98c-.45.22-.97.33-1.58.33-.96,0-1.75-.35-2.37-1.04-.62-.7-.94-1.54-.94-2.54s.31-1.86.94-2.55c.62-.69,1.42-1.03,2.37-1.03.61,0,1.13.1,1.56.3.43.2.89.52,1.38.97l1.5-1.73c-.61-.6-1.25-1.06-1.92-1.38-.67-.32-1.5-.48-2.49-.48-1.73,0-3.15.57-4.27,1.71-1.12,1.14-1.68,2.54-1.68,4.19s.56,3.06,1.67,4.2,2.51,1.7,4.18,1.7c1.05,0,1.94-.16,2.66-.47.72-.31,1.39-.8,2.01-1.47l-1.6-1.71c-.5.46-.97.79-1.42,1.01Z"/>
  <polygon points="298.88 283.8 304.26 283.8 304.26 281.57 298.88 281.57 298.88 279.25 304.99 279.25 304.99 277.02 296.39 277.02 296.39 288.43 305.07 288.43 305.07 286.2 298.88 286.2 298.88 283.8"/>
  <polygon points="316.01 284.05 310.66 277.02 308.35 277.02 308.35 288.43 310.82 288.43 310.82 281.18 316.35 288.43 318.48 288.43 318.48 277.02 316.01 277.02 316.01 284.05"/>
  <polygon points="321.09 279.34 324.56 279.34 324.56 288.43 327.07 288.43 327.07 279.34 330.54 279.34 330.54 277.02 321.09 277.02 321.09 279.34"/>
  <polygon points="335.64 283.8 341.02 283.8 341.02 281.57 335.64 281.57 335.64 279.25 341.75 279.25 341.75 277.02 333.15 277.02 333.15 288.43 341.83 288.43 341.83 286.2 335.64 286.2 335.64 283.8"/>
  <path d="m354.63,280.82c0-1.11-.33-1.99-.98-2.64-.77-.77-1.88-1.16-3.32-1.16h-5.21v11.41h2.51v-3.65h1.94l2.48,3.65h2.93l-2.79-4.07c1.63-.61,2.44-1.79,2.44-3.54Zm-3.05,1.3c-.34.3-.81.45-1.42.45h-2.54v-3.28h2.49c.62,0,1.1.14,1.45.42.35.28.52.68.52,1.21,0,.5-.17.9-.51,1.2Z"/>
  <path d="m22.67,187.07v42.74c0,10.83,2.85,19.07,8.55,24.73,5.7,5.66,13.64,8.49,23.83,8.49s18.29-2.85,24.09-8.55c5.8-5.7,8.71-14.1,8.71-25.21v-42.2h-16.45v42.84c0,5.84-1.41,10.29-4.22,13.35-2.81,3.06-6.78,4.59-11.91,4.59s-9.1-1.58-11.91-4.75c-2.81-3.17-4.22-7.75-4.22-13.73v-42.31h-16.45Z"/>
  <polygon points="154.24 233.12 119.19 187.07 104.02 187.07 104.02 261.86 120.26 261.86 120.26 214.32 156.48 261.86 170.48 261.86 170.48 187.07 154.24 187.07 154.24 233.12"/>
  <rect x="187.77" y="187.07" width="16.45" height="74.79"/>
  <polygon points="214.21 202.24 236.96 202.24 236.96 261.86 253.42 261.86 253.42 202.24 276.17 202.24 276.17 187.07 214.21 187.07 214.21 202.24"/>
  <polygon points="319.43 217.09 301.59 187.07 282.36 187.07 311.1 232.37 311.1 261.86 327.55 261.86 327.55 232.05 356.29 187.07 337.59 187.07 319.43 217.09"/>
</svg>